<svg viewBox="0 0 48 48" fill="none" xmlns="http://www.w3.org/2000/svg">
  <!-- Bridge Structure -->
  <path d="M4 32 L44 32 L44 36 L4 36 Z" fill="#6366f1" />
  <path d="M4 28 L44 28 L44 32 L4 32 Z" fill="#818cf8" />
  <path d="M4 24 L44 24 L44 28 L4 28 Z" fill="#a5b4fc" />
  
  <!-- Support Pillars -->
  <rect x="8" y="20" width="4" height="12" fill="#6366f1" />
  <rect x="36" y="20" width="4" height="12" fill="#6366f1" />
  
  <!-- Connection Lines -->
  <path d="M12 12 L36 12" stroke="#818cf8" strokeWidth="2" />
  <path d="M14 16 L34 16" stroke="#a5b4fc" strokeWidth="2" />
  <path d="M34 8 L14 8" stroke="#a5b4fc" strokeWidth="2" />
  
  <!-- People Dots -->
  <circle cx="12" cy="12" r="2" fill="#6366f1" />
  <circle cx="36" cy="12" r="2" fill="#6366f1" />
  <circle cx="14" cy="16" r="2" fill="#818cf8" />
  <circle cx="34" cy="16" r="2" fill="#818cf8" />
  <circle cx="34" cy="8" r="2" fill="#818cf8" />
  <circle cx="14" cy="8" r="2" fill="#818cf8" />
</svg>
